<svg xmlns="http://www.w3.org/2000/svg" width="512" height="512" viewBox="0 0 512 512">
<g>
<path d="M 315.92 0.00 L 319.70 0.00 L 323.60 2.89 C325.74,4.48 355.01,33.40 388.63,67.14 C447.45,126.18 452.72,131.95 450.19,134.48 C449.90,134.76 427.11,135.00 399.54,135.00 C358.06,135.00 348.42,134.74 343.62,133.49 C332.33,130.55 324.11,123.79 319.30,113.50 L 316.50 107.50 L 316.21 53.75 L 315.92 0.00 ZM 247.93 148.25 C244.77,149.86 239.48,150.00 181.00,150.00 C178.75,150.00 176.58,150.00 174.48,150.00 C121.63,150.00 114.32,150.00 110.66,146.35 C109.93,145.61 109.35,144.73 108.57,143.68 C105.52,139.51 105.68,130.64 108.90,126.14 C109.58,125.18 110.12,124.37 110.79,123.69 C114.39,120.00 121.78,120.00 176.44,120.00 C178.00,120.00 179.60,120.00 181.23,120.00 C240.93,120.00 244.73,120.11 247.98,121.85 C253.54,124.83 255.50,128.26 255.50,135.00 C255.50,141.78 253.40,145.46 247.93,148.25 ZM 247.98 88.25 C244.78,89.86 239.46,90.00 181.00,90.00 C178.12,90.00 175.36,90.00 172.71,90.00 C121.90,90.01 113.92,90.01 110.45,86.05 C109.63,85.11 109.06,83.95 108.22,82.50 C103.89,74.99 106.54,65.59 114.07,61.75 C117.23,60.14 122.52,60.00 181.02,60.00 C240.95,60.00 244.73,60.10 248.02,61.85 C252.25,64.11 255.97,70.25 255.97,75.00 C255.97,79.86 252.18,86.14 247.98,88.25 Z" fill="rgb(158,156,184)"/>
<path d="M 0.00 0.00 L 315.92 0.00 L 316.21 53.75 L 316.50 107.50 L 319.30 113.50 C324.11,123.79 332.33,130.55 343.62,133.49 C348.42,134.74 358.06,135.00 399.54,135.00 C427.11,135.00 449.90,134.76 450.19,134.48 C452.72,131.95 447.45,126.18 388.63,67.14 C355.01,33.40 325.74,4.48 323.60,2.89 L 319.70 0.00 L 512.00 0.00 L 512.00 512.00 L 0.00 512.00 ZM 67.50 429.30 C68.60,429.56 153.46,429.82 256.07,429.88 C424.05,429.99 443.18,429.84 448.07,428.41 C463.37,423.92 475.54,411.56 479.45,396.54 C481.78,387.59 481.78,242.41 479.45,233.46 C475.45,218.09 462.75,205.46 447.33,201.51 C442.02,200.15 419.79,200.00 253.42,200.23 C69.77,200.49 65.40,200.54 61.00,202.45 C45.20,209.28 34.87,221.44 32.09,236.48 C30.55,244.79 30.59,386.95 32.13,394.20 C33.57,401.02 38.10,410.00 42.60,414.98 C48.67,421.69 58.03,427.08 67.50,429.30 ZM 166.40 373.02 C145.97,378.25 125.39,372.45 110.06,357.13 C101.29,348.37 96.89,340.79 93.98,329.40 C90.36,315.26 92.25,299.86 99.23,286.69 C103.56,278.50 115.67,266.37 123.69,262.18 C131.67,258.01 143.55,255.00 152.00,255.00 C160.45,255.00 172.33,258.01 180.31,262.18 C188.24,266.32 200.45,278.51 204.68,286.51 C211.84,300.03 213.70,315.02 210.02,329.40 C207.14,340.70 202.70,348.37 194.03,357.03 C185.37,365.70 177.70,370.14 166.40,373.02 ZM 363.08 372.08 C358.85,376.30 353.93,376.13 349.40,371.60 L 346.00 368.20 L 346.00 261.80 L 349.49 258.31 L 352.98 254.82 L 372.74 255.16 C391.72,255.49 392.72,255.61 398.22,258.18 C405.78,261.73 413.33,268.93 416.74,275.88 C419.13,280.75 419.50,282.70 419.50,290.50 C419.50,297.67 419.02,300.67 417.14,305.24 C413.92,313.05 404.66,321.77 396.72,324.47 C393.57,325.54 391.00,326.73 391.00,327.12 C391.00,327.51 396.52,334.05 403.27,341.66 C419.84,360.36 420.00,360.58 420.00,365.21 C420.00,373.26 410.90,377.86 404.67,372.96 C403.24,371.83 394.37,362.16 384.96,351.46 C375.55,340.76 367.43,332.00 366.92,332.00 C366.39,332.00 366.00,339.87 366.00,350.58 L 366.00 369.15 ZM 141.89 353.55 C154.66,357.07 169.26,353.33 179.46,343.93 C181.92,341.66 185.38,336.75 187.61,332.34 C191.33,325.03 191.50,324.26 191.50,315.09 C191.50,306.40 191.20,304.88 188.34,298.82 C182.72,286.97 174.06,279.72 161.50,276.36 C151.87,273.78 141.91,275.21 132.06,280.56 C125.26,284.26 119.54,290.63 115.66,298.82 C112.80,304.86 112.50,306.41 112.50,315.00 C112.50,323.59 112.80,325.14 115.66,331.18 C121.09,342.63 130.07,350.29 141.89,353.55 ZM 308.38 371.02 C301.37,373.97 299.29,374.37 289.50,374.66 C272.65,375.16 259.30,370.40 247.40,359.62 C234.47,347.92 227.71,332.84 227.62,315.50 C227.54,297.97 233.10,284.68 245.69,272.30 C260.22,258.03 280.51,252.00 300.20,256.11 C308.09,257.75 321.48,264.28 323.61,267.52 C327.42,273.35 324.60,281.54 318.13,283.39 C315.46,284.16 313.74,283.72 307.13,280.62 C293.37,274.17 281.61,273.96 269.42,279.97 C261.34,283.94 252.94,292.86 250.08,300.50 C247.15,308.35 247.18,321.74 250.16,329.71 C252.86,336.92 262.02,346.43 270.03,350.33 C278.84,354.61 286.88,355.63 295.64,353.56 C301.92,352.08 303.75,351.10 309.00,346.42 C314.23,341.76 315.64,341.00 319.11,341.00 C322.28,341.00 323.81,341.66 326.20,344.05 C328.96,346.80 329.20,347.55 328.72,351.79 C328.25,355.96 327.51,357.13 322.23,362.10 C317.98,366.09 313.99,368.66 308.38,371.02 ZM 247.93 148.25 C253.40,145.46 255.50,141.78 255.50,135.00 C255.50,128.26 253.54,124.83 247.98,121.85 C244.73,120.11 240.93,120.00 181.23,120.00 C179.60,120.00 178.00,120.00 176.44,120.00 C121.78,120.00 114.39,120.00 110.79,123.69 C110.12,124.37 109.58,125.18 108.90,126.14 C105.68,130.64 105.52,139.51 108.57,143.68 C109.35,144.73 109.93,145.61 110.66,146.35 C114.32,150.00 121.63,150.00 174.48,150.00 C176.58,150.00 178.75,150.00 181.00,150.00 C239.48,150.00 244.77,149.86 247.93,148.25 ZM 247.98 88.25 C252.18,86.14 255.97,79.86 255.97,75.00 C255.97,70.25 252.25,64.11 248.02,61.85 C244.73,60.10 240.95,60.00 181.02,60.00 C122.52,60.00 117.23,60.14 114.07,61.75 C106.54,65.59 103.89,74.99 108.22,82.50 C109.06,83.95 109.63,85.11 110.45,86.05 C113.92,90.01 121.90,90.01 172.71,90.00 C175.36,90.00 178.12,90.00 181.00,90.00 C239.46,90.00 244.78,89.86 247.98,88.25 ZM 366.00 274.78 L 366.00 307.00 L 376.25 306.98 C384.08,306.96 387.47,306.52 390.60,305.09 C401.93,299.95 403.08,285.05 392.67,278.16 C389.03,275.75 387.59,275.47 377.33,275.14 Z" fill="rgb(242,241,247)"/>
<path d="M 308.38 371.02 C313.99,368.66 317.98,366.09 322.23,362.10 C327.51,357.13 328.25,355.96 328.72,351.79 C329.20,347.55 328.96,346.80 326.20,344.05 C323.81,341.66 322.28,341.00 319.11,341.00 C315.64,341.00 314.23,341.76 309.00,346.42 C303.75,351.10 301.92,352.08 295.64,353.56 C286.88,355.63 278.84,354.61 270.03,350.33 C265.09,347.92 259.69,343.37 255.66,338.54 C255.85,336.35 255.99,326.49 255.98,314.75 L 255.96 290.93 C259.75,286.40 264.64,282.32 269.42,279.97 C281.61,273.96 293.37,274.17 307.13,280.62 C313.74,283.72 315.46,284.16 318.13,283.39 C324.60,281.54 327.42,273.35 323.61,267.52 C321.48,264.28 308.09,257.75 300.20,256.11 C280.51,252.00 260.22,258.03 245.69,272.30 C239.90,277.99 235.59,283.88 232.64,290.29 C236.69,281.20 243.19,273.28 252.13,266.56 C255.47,264.05 257.70,262.00 257.10,262.00 C256.32,262.00 256.00,252.86 256.00,230.97 L 256.00 200.23 C420.02,200.00 442.05,200.15 447.33,201.51 C462.75,205.46 475.45,218.09 479.45,233.46 C481.78,242.41 481.78,387.59 479.45,396.54 C475.54,411.56 463.37,423.92 448.07,428.41 C443.18,429.84 424.05,429.99 256.07,429.88 L 256.00 429.88 L 256.00 399.00 C256.00,376.95 256.32,368.00 257.11,368.00 C257.62,368.00 256.21,366.63 253.86,364.77 C264.13,371.92 275.63,375.07 289.50,374.66 C299.29,374.37 301.37,373.97 308.38,371.02 ZM 363.08 372.08 L 366.00 369.15 L 366.00 350.58 C366.00,339.87 366.39,332.00 366.92,332.00 C367.43,332.00 375.55,340.76 384.96,351.46 C394.37,362.16 403.24,371.83 404.67,372.96 C410.90,377.86 420.00,373.26 420.00,365.21 C420.00,360.58 419.84,360.36 403.27,341.66 C396.52,334.05 391.00,327.51 391.00,327.12 C391.00,326.73 393.57,325.54 396.72,324.47 C404.66,321.77 413.92,313.05 417.14,305.24 C419.02,300.67 419.50,297.67 419.50,290.50 C419.50,282.70 419.13,280.75 416.74,275.88 C413.33,268.93 405.78,261.73 398.22,258.18 C392.72,255.61 391.72,255.49 372.74,255.16 L 352.98 254.82 L 349.49 258.31 L 346.00 261.80 L 346.00 368.20 L 349.40 371.60 C353.93,376.13 358.85,376.30 363.08,372.08 ZM 366.00 274.78 L 377.33 275.14 C387.59,275.47 389.03,275.75 392.67,278.16 C403.08,285.05 401.93,299.95 390.60,305.09 C387.47,306.52 384.08,306.96 376.25,306.98 L 366.00 307.00 ZM 245.35 357.69 C234.24,346.94 228.33,333.69 227.68,318.04 C228.35,333.39 234.36,346.87 245.35,357.69 ZM 248.36 322.04 C247.41,314.86 247.95,306.48 249.97,300.82 C248.67,304.84 248.00,309.58 248.00,314.91 C248.00,317.56 248.11,319.90 248.36,322.04 ZM 61.00 202.45 C58.77,203.41 56.64,204.48 54.64,205.65 C56.64,204.48 58.77,203.41 61.00,202.45 C61.23,202.35 61.46,202.25 61.71,202.16 C61.47,202.25 61.24,202.35 61.00,202.45 Z" fill="rgb(254,93,91)"/>
<path d="M 67.50 429.30 C58.03,427.08 48.67,421.69 42.60,414.98 C38.10,410.00 33.57,401.02 32.13,394.20 C30.59,386.95 30.55,244.79 32.09,236.48 C34.87,221.43 45.22,209.25 61.00,202.45 C65.33,200.58 69.04,200.50 160.75,200.23 L 256.00 199.94 L 256.00 230.97 C256.00,252.86 256.32,262.00 257.10,262.00 C257.70,262.00 255.47,264.05 252.13,266.56 C235.73,278.89 227.52,295.28 227.63,315.50 C227.73,335.33 236.01,351.44 252.36,363.63 C255.58,366.03 257.72,368.00 257.11,368.00 C256.32,368.00 256.00,376.95 256.00,399.00 L 256.00 430.00 L 162.75 429.88 C111.46,429.82 68.60,429.56 67.50,429.30 ZM 166.40 373.02 C177.70,370.14 185.37,365.70 194.03,357.03 C202.70,348.37 207.14,340.70 210.02,329.40 C213.70,315.02 211.84,300.03 204.68,286.51 C200.45,278.51 188.24,266.32 180.31,262.18 C172.33,258.01 160.45,255.00 152.00,255.00 C143.55,255.00 131.67,258.01 123.69,262.18 C115.67,266.37 103.56,278.50 99.23,286.69 C92.25,299.86 90.36,315.26 93.98,329.40 C96.89,340.79 101.29,348.37 110.06,357.13 C125.39,372.45 145.97,378.25 166.40,373.02 ZM 253.09 335.64 C249.35,329.59 248.00,324.10 248.00,314.91 C248.00,305.55 250.07,297.99 253.99,293.00 L 255.96 290.50 L 255.98 314.75 C255.99,328.09 255.81,339.00 255.58,339.00 C255.35,339.00 254.23,337.49 253.09,335.64 ZM 141.89 353.55 C130.07,350.29 121.09,342.63 115.66,331.18 C112.80,325.14 112.50,323.59 112.50,315.00 C112.50,306.41 112.80,304.86 115.66,298.82 C119.54,290.63 125.26,284.26 132.06,280.56 C141.91,275.21 151.87,273.78 161.50,276.36 C174.06,279.72 182.72,286.97 188.34,298.82 C191.20,304.88 191.50,306.40 191.50,315.09 C191.50,324.26 191.33,325.03 187.61,332.34 C185.38,336.75 181.92,341.66 179.46,343.93 C169.26,353.33 154.66,357.07 141.89,353.55 Z" fill="rgb(254,134,89)"/>
</g>
</svg>